<?xml version="1.0" encoding="UTF-8"?> <svg xmlns="http://www.w3.org/2000/svg" width="316.707" height="94.781" viewBox="0 0 316.707 94.781"><g id="Group_709" data-name="Group 709" transform="translate(-44.867 -337.74)"><g id="Group_897" data-name="Group 897" transform="translate(44.867 337.74)"><g id="Group_896" data-name="Group 896"><g id="Group_777" data-name="Group 777" transform="translate(10.393 10.991)"><g id="Group_776" data-name="Group 776"><g id="Group_775" data-name="Group 775"><g id="Group_774" data-name="Group 774"><g id="Group_773" data-name="Group 773"><g id="Group_772" data-name="Group 772"><g id="Group_771" data-name="Group 771"><g id="Group_711" data-name="Group 711" transform="translate(12.801 12.582)"><g id="Group_710" data-name="Group 710"><g id="Group_709-2" data-name="Group 709"><circle id="Ellipse_129" data-name="Ellipse 129" cx="4.893" cy="4.893" r="4.893" fill="#003d42"></circle></g></g></g><g id="Group_714" data-name="Group 714" transform="translate(12.801 25.163)"><g id="Group_713" data-name="Group 713"><g id="Group_712" data-name="Group 712"><circle id="Ellipse_130" data-name="Ellipse 130" cx="4.893" cy="4.893" r="4.893" fill="#003d42"></circle></g></g></g><g id="Group_717" data-name="Group 717" transform="translate(0 12.582)"><g id="Group_716" data-name="Group 716"><g id="Group_715" data-name="Group 715"><circle id="Ellipse_131" data-name="Ellipse 131" cx="4.893" cy="4.893" r="4.893" fill="#003d42"></circle></g></g></g><g id="Group_720" data-name="Group 720" transform="translate(63.997 12.582)"><g id="Group_719" data-name="Group 719"><g id="Group_718" data-name="Group 718"><circle id="Ellipse_132" data-name="Ellipse 132" cx="4.893" cy="4.893" r="4.893" fill="#003d42"></circle></g></g></g><g id="Group_723" data-name="Group 723" transform="translate(51.196 12.582)"><g id="Group_722" data-name="Group 722"><g id="Group_721" data-name="Group 721"><circle id="Ellipse_133" data-name="Ellipse 133" cx="4.893" cy="4.893" r="4.893" fill="#003d42"></circle></g></g></g><g id="Group_726" data-name="Group 726" transform="translate(0 25.163)"><g id="Group_725" data-name="Group 725"><g id="Group_724" data-name="Group 724"><circle id="Ellipse_134" data-name="Ellipse 134" cx="4.893" cy="4.893" r="4.893" fill="#003d42"></circle></g></g></g><g id="Group_729" data-name="Group 729" transform="translate(12.801 37.744)"><g id="Group_728" data-name="Group 728"><g id="Group_727" data-name="Group 727"><circle id="Ellipse_135" data-name="Ellipse 135" cx="4.893" cy="4.893" r="4.893" fill="#003d42"></circle></g></g></g><g id="Group_732" data-name="Group 732" transform="translate(38.399 37.744)"><g id="Group_731" data-name="Group 731"><g id="Group_730" data-name="Group 730"><circle id="Ellipse_136" data-name="Ellipse 136" cx="4.893" cy="4.893" r="4.893" fill="#003d42"></circle></g></g></g><g id="Group_735" data-name="Group 735" transform="translate(51.198 37.744)"><g id="Group_734" data-name="Group 734"><g id="Group_733" data-name="Group 733"><circle id="Ellipse_137" data-name="Ellipse 137" cx="4.893" cy="4.893" r="4.893" fill="#003d42"></circle></g></g></g><g id="Group_738" data-name="Group 738" transform="translate(63.997 37.744)"><g id="Group_737" data-name="Group 737"><g id="Group_736" data-name="Group 736"><circle id="Ellipse_138" data-name="Ellipse 138" cx="4.893" cy="4.893" r="4.893" fill="#003d42"></circle></g></g></g><g id="Group_741" data-name="Group 741" transform="translate(0 37.744)"><g id="Group_740" data-name="Group 740"><g id="Group_739" data-name="Group 739"><circle id="Ellipse_139" data-name="Ellipse 139" cx="4.893" cy="4.893" r="4.893" fill="#003d42"></circle></g></g></g><g id="Group_744" data-name="Group 744" transform="translate(12.801 50.325)"><g id="Group_743" data-name="Group 743"><g id="Group_742" data-name="Group 742"><circle id="Ellipse_140" data-name="Ellipse 140" cx="4.893" cy="4.893" r="4.893" fill="#003d42"></circle></g></g></g><g id="Group_747" data-name="Group 747" transform="translate(51.198 50.325)"><g id="Group_746" data-name="Group 746"><g id="Group_745" data-name="Group 745"><circle id="Ellipse_141" data-name="Ellipse 141" cx="4.893" cy="4.893" r="4.893" fill="#003d42"></circle></g></g></g><g id="Group_750" data-name="Group 750" transform="translate(63.997 50.325)"><g id="Group_749" data-name="Group 749"><g id="Group_748" data-name="Group 748"><circle id="Ellipse_142" data-name="Ellipse 142" cx="4.893" cy="4.893" r="4.893" fill="#003d42"></circle></g></g></g><g id="Group_753" data-name="Group 753" transform="translate(12.801 62.907)"><g id="Group_752" data-name="Group 752"><g id="Group_751" data-name="Group 751"><circle id="Ellipse_143" data-name="Ellipse 143" cx="4.893" cy="4.893" r="4.893" fill="#003d42"></circle></g></g></g><g id="Group_756" data-name="Group 756" transform="translate(25.6 62.907)"><g id="Group_755" data-name="Group 755"><g id="Group_754" data-name="Group 754"><circle id="Ellipse_144" data-name="Ellipse 144" cx="4.893" cy="4.893" r="4.893" fill="#003d42"></circle></g></g></g><g id="Group_759" data-name="Group 759" transform="translate(38.399 62.907)"><g id="Group_758" data-name="Group 758"><g id="Group_757" data-name="Group 757"><circle id="Ellipse_145" data-name="Ellipse 145" cx="4.893" cy="4.893" r="4.893" fill="#003d42"></circle></g></g></g><g id="Group_762" data-name="Group 762" transform="translate(51.198 62.907)"><g id="Group_761" data-name="Group 761"><g id="Group_760" data-name="Group 760"><circle id="Ellipse_146" data-name="Ellipse 146" cx="4.893" cy="4.893" r="4.893" fill="#003d42"></circle></g></g></g><g id="Group_767" data-name="Group 767" transform="translate(12.801)"><g id="Group_763" data-name="Group 763" transform="translate(0 0)"><path id="Path_131" data-name="Path 131" d="M78.045,351.143a4.894,4.894,0,1,0,4.893,4.894A4.894,4.894,0,0,0,78.045,351.143Z" transform="translate(-73.151 -351.143)" fill="#003d42"></path></g><g id="Group_764" data-name="Group 764" transform="translate(12.799 0)"><circle id="Ellipse_147" data-name="Ellipse 147" cx="4.893" cy="4.893" r="4.893" fill="#003d42"></circle></g><g id="Group_765" data-name="Group 765" transform="translate(25.598)"><circle id="Ellipse_148" data-name="Ellipse 148" cx="4.894" cy="4.894" r="4.894" fill="#003d42"></circle></g><g id="Group_766" data-name="Group 766" transform="translate(38.397 0)"><circle id="Ellipse_149" data-name="Ellipse 149" cx="4.893" cy="4.893" r="4.893" fill="#003d42"></circle></g></g><g id="Group_770" data-name="Group 770" transform="translate(0 50.325)"><g id="Group_769" data-name="Group 769"><g id="Group_768" data-name="Group 768"><circle id="Ellipse_150" data-name="Ellipse 150" cx="4.893" cy="4.893" r="4.893" fill="#003d42"></circle></g></g></g></g></g></g></g></g></g></g><g id="Group_895" data-name="Group 895"><g id="Group_894" data-name="Group 894"><g id="Group_781" data-name="Group 781" transform="translate(24.783)"><g id="Group_780" data-name="Group 780"><g id="Group_779" data-name="Group 779"><g id="Group_778" data-name="Group 778"><circle id="Ellipse_151" data-name="Ellipse 151" cx="3.303" cy="3.303" r="3.303" fill="#a3a3a3"></circle></g></g></g></g><g id="Group_785" data-name="Group 785" transform="translate(37.582)"><g id="Group_784" data-name="Group 784"><g id="Group_783" data-name="Group 783"><g id="Group_782" data-name="Group 782"><circle id="Ellipse_152" data-name="Ellipse 152" cx="3.303" cy="3.303" r="3.303" fill="#a3a3a3"></circle></g></g></g></g><g id="Group_789" data-name="Group 789" transform="translate(50.381)"><g id="Group_788" data-name="Group 788"><g id="Group_787" data-name="Group 787"><g id="Group_786" data-name="Group 786"><circle id="Ellipse_153" data-name="Ellipse 153" cx="3.303" cy="3.303" r="3.303" fill="#a3a3a3"></circle></g></g></g></g><g id="Group_793" data-name="Group 793" transform="translate(63.18)"><g id="Group_792" data-name="Group 792"><g id="Group_791" data-name="Group 791"><g id="Group_790" data-name="Group 790"><circle id="Ellipse_154" data-name="Ellipse 154" cx="3.303" cy="3.303" r="3.303" fill="#a3a3a3"></circle></g></g></g></g><g id="Group_797" data-name="Group 797" transform="translate(24.783 88.069)"><g id="Group_796" data-name="Group 796"><g id="Group_795" data-name="Group 795"><g id="Group_794" data-name="Group 794"><circle id="Ellipse_155" data-name="Ellipse 155" cx="3.303" cy="3.303" r="3.303" fill="#a3a3a3"></circle></g></g></g></g><g id="Group_801" data-name="Group 801" transform="translate(37.582 88.069)"><g id="Group_800" data-name="Group 800"><g id="Group_799" data-name="Group 799"><g id="Group_798" data-name="Group 798"><circle id="Ellipse_156" data-name="Ellipse 156" cx="3.303" cy="3.303" r="3.303" fill="#a3a3a3"></circle></g></g></g></g><g id="Group_805" data-name="Group 805" transform="translate(50.381 88.069)"><g id="Group_804" data-name="Group 804"><g id="Group_803" data-name="Group 803"><g id="Group_802" data-name="Group 802"><circle id="Ellipse_157" data-name="Ellipse 157" cx="3.303" cy="3.303" r="3.303" fill="#a3a3a3"></circle></g></g></g></g><g id="Group_809" data-name="Group 809" transform="translate(63.18 88.069)"><g id="Group_808" data-name="Group 808"><g id="Group_807" data-name="Group 807"><g id="Group_806" data-name="Group 806"><circle id="Ellipse_158" data-name="Ellipse 158" cx="3.303" cy="3.303" r="3.303" fill="#a3a3a3"></circle></g></g></g></g><g id="Group_813" data-name="Group 813" transform="translate(0 25.163)"><g id="Group_812" data-name="Group 812"><g id="Group_811" data-name="Group 811"><g id="Group_810" data-name="Group 810"><circle id="Ellipse_159" data-name="Ellipse 159" cx="3.303" cy="3.303" r="3.303" fill="#a3a3a3"></circle></g></g></g></g><g id="Group_817" data-name="Group 817" transform="translate(0 37.744)"><g id="Group_816" data-name="Group 816"><g id="Group_815" data-name="Group 815"><g id="Group_814" data-name="Group 814"><circle id="Ellipse_160" data-name="Ellipse 160" cx="3.303" cy="3.303" r="3.303" fill="#a3a3a3"></circle></g></g></g></g><g id="Group_821" data-name="Group 821" transform="translate(0 50.325)"><g id="Group_820" data-name="Group 820"><g id="Group_819" data-name="Group 819"><g id="Group_818" data-name="Group 818"><circle id="Ellipse_161" data-name="Ellipse 161" cx="3.303" cy="3.303" r="3.303" fill="#a3a3a3"></circle></g></g></g></g><g id="Group_825" data-name="Group 825" transform="translate(0 62.906)"><g id="Group_824" data-name="Group 824"><g id="Group_823" data-name="Group 823"><g id="Group_822" data-name="Group 822"><circle id="Ellipse_162" data-name="Ellipse 162" cx="3.303" cy="3.303" r="3.303" fill="#a3a3a3"></circle></g></g></g></g><g id="Group_829" data-name="Group 829" transform="translate(11.982 75.488)"><g id="Group_828" data-name="Group 828"><g id="Group_827" data-name="Group 827"><g id="Group_826" data-name="Group 826"><circle id="Ellipse_163" data-name="Ellipse 163" cx="3.303" cy="3.303" r="3.303" fill="#a3a3a3"></circle></g></g></g></g><g id="Group_833" data-name="Group 833" transform="translate(75.979 75.488)"><g id="Group_832" data-name="Group 832"><g id="Group_831" data-name="Group 831"><g id="Group_830" data-name="Group 830"><circle id="Ellipse_164" data-name="Ellipse 164" cx="3.303" cy="3.303" r="3.303" fill="#a3a3a3"></circle></g></g></g></g><g id="Group_837" data-name="Group 837" transform="translate(87.963 25.163)"><g id="Group_836" data-name="Group 836"><g id="Group_835" data-name="Group 835"><g id="Group_834" data-name="Group 834"><circle id="Ellipse_165" data-name="Ellipse 165" cx="3.303" cy="3.303" r="3.303" fill="#a3a3a3"></circle></g></g></g></g><g id="Group_841" data-name="Group 841" transform="translate(87.963 37.744)"><g id="Group_840" data-name="Group 840"><g id="Group_839" data-name="Group 839"><g id="Group_838" data-name="Group 838"><circle id="Ellipse_166" data-name="Ellipse 166" cx="3.303" cy="3.303" r="3.303" fill="#a3a3a3"></circle></g></g></g></g><g id="Group_845" data-name="Group 845" transform="translate(87.963 50.325)"><g id="Group_844" data-name="Group 844"><g id="Group_843" data-name="Group 843"><g id="Group_842" data-name="Group 842"><circle id="Ellipse_167" data-name="Ellipse 167" cx="3.303" cy="3.303" r="3.303" fill="#a3a3a3"></circle></g></g></g></g><g id="Group_849" data-name="Group 849" transform="translate(87.963 62.906)"><g id="Group_848" data-name="Group 848"><g id="Group_847" data-name="Group 847"><g id="Group_846" data-name="Group 846"><circle id="Ellipse_168" data-name="Ellipse 168" cx="3.303" cy="3.303" r="3.303" fill="#a3a3a3"></circle></g></g></g></g><g id="Group_853" data-name="Group 853" transform="translate(37.582 25.163)"><g id="Group_852" data-name="Group 852"><g id="Group_851" data-name="Group 851"><g id="Group_850" data-name="Group 850"><circle id="Ellipse_169" data-name="Ellipse 169" cx="3.303" cy="3.303" r="3.303" fill="#a3a3a3"></circle></g></g></g></g><g id="Group_857" data-name="Group 857" transform="translate(11.982 12.581)"><g id="Group_856" data-name="Group 856"><g id="Group_855" data-name="Group 855"><g id="Group_854" data-name="Group 854"><circle id="Ellipse_170" data-name="Ellipse 170" cx="3.303" cy="3.303" r="3.303" fill="#a3a3a3"></circle></g></g></g></g><g id="Group_861" data-name="Group 861" transform="translate(75.979 12.581)"><g id="Group_860" data-name="Group 860"><g id="Group_859" data-name="Group 859"><g id="Group_858" data-name="Group 858"><circle id="Ellipse_171" data-name="Ellipse 171" cx="3.303" cy="3.303" r="3.303" fill="#a3a3a3"></circle></g></g></g></g><g id="Group_865" data-name="Group 865" transform="translate(37.582 37.744)"><g id="Group_864" data-name="Group 864"><g id="Group_863" data-name="Group 863"><g id="Group_862" data-name="Group 862"><circle id="Ellipse_172" data-name="Ellipse 172" cx="3.303" cy="3.303" r="3.303" fill="#a3a3a3"></circle></g></g></g></g><g id="Group_869" data-name="Group 869" transform="translate(50.381 25.163)"><g id="Group_868" data-name="Group 868"><g id="Group_867" data-name="Group 867"><g id="Group_866" data-name="Group 866"><circle id="Ellipse_173" data-name="Ellipse 173" cx="3.303" cy="3.303" r="3.303" fill="#a3a3a3"></circle></g></g></g></g><g id="Group_873" data-name="Group 873" transform="translate(50.381 37.744)"><g id="Group_872" data-name="Group 872"><g id="Group_871" data-name="Group 871"><g id="Group_870" data-name="Group 870"><circle id="Ellipse_174" data-name="Ellipse 174" cx="3.303" cy="3.303" r="3.303" fill="#a3a3a3"></circle></g></g></g></g><g id="Group_877" data-name="Group 877" transform="translate(63.18 37.744)"><g id="Group_876" data-name="Group 876"><g id="Group_875" data-name="Group 875"><g id="Group_874" data-name="Group 874"><circle id="Ellipse_175" data-name="Ellipse 175" cx="3.303" cy="3.303" r="3.303" fill="#a3a3a3"></circle></g></g></g></g><g id="Group_881" data-name="Group 881" transform="translate(75.979 37.744)"><g id="Group_880" data-name="Group 880"><g id="Group_879" data-name="Group 879"><g id="Group_878" data-name="Group 878"><circle id="Ellipse_176" data-name="Ellipse 176" cx="3.303" cy="3.303" r="3.303" fill="#a3a3a3"></circle></g></g></g></g><g id="Group_885" data-name="Group 885" transform="translate(37.582 50.325)"><g id="Group_884" data-name="Group 884"><g id="Group_883" data-name="Group 883"><g id="Group_882" data-name="Group 882"><circle id="Ellipse_177" data-name="Ellipse 177" cx="3.303" cy="3.303" r="3.303" fill="#a3a3a3"></circle></g></g></g></g><g id="Group_889" data-name="Group 889" transform="translate(37.582 62.906)"><g id="Group_888" data-name="Group 888"><g id="Group_887" data-name="Group 887"><g id="Group_886" data-name="Group 886"><circle id="Ellipse_178" data-name="Ellipse 178" cx="3.303" cy="3.303" r="3.303" fill="#a3a3a3"></circle></g></g></g></g><g id="Group_893" data-name="Group 893" transform="translate(50.381 62.906)"><g id="Group_892" data-name="Group 892"><g id="Group_891" data-name="Group 891"><g id="Group_890" data-name="Group 890"><circle id="Ellipse_179" data-name="Ellipse 179" cx="3.303" cy="3.303" r="3.303" fill="#a3a3a3"></circle></g></g></g></g></g></g></g></g><g id="Group_898" data-name="Group 898" transform="translate(127.363 425.522)"><text id="TM" transform="translate(0 5)" fill="#003d42" font-size="7" font-family="Manrope-Bold, Manrope" font-weight="700" letter-spacing="0.01em"><tspan x="0" y="0">TM</tspan></text></g><g id="Group_907" data-name="Group 907" transform="translate(165.726 352.527)"><g id="Group_901" data-name="Group 901" transform="translate(3.406 43.469)"><g id="Group_900" data-name="Group 900"><g id="Group_899" data-name="Group 899"><path id="Path_132" data-name="Path 132" d="M196.4,421.15V409.067h2.022v10.187h5.337v1.9Z" transform="translate(-196.403 -408.832)" fill="#368b27"></path><path id="Path_133" data-name="Path 133" d="M209.744,422.01a3.406,3.406,0,0,1-1.661-.374,2.55,2.55,0,0,1-1.027-.994,2.748,2.748,0,0,1-.349-1.368,3.045,3.045,0,0,1,.218-1.178,2.358,2.358,0,0,1,.672-.907,3.59,3.59,0,0,1,1.174-.625,11.178,11.178,0,0,1,1.28-.318q.733-.143,1.594-.265t1.8-.265l-.722.412a1.911,1.911,0,0,0-.42-1.384,1.944,1.944,0,0,0-1.443-.444,2.615,2.615,0,0,0-1.183.285,1.585,1.585,0,0,0-.8.982l-1.846-.58a3.417,3.417,0,0,1,1.28-1.845,4.192,4.192,0,0,1,2.546-.7,5.347,5.347,0,0,1,2.127.394,2.641,2.641,0,0,1,1.364,1.292,2.75,2.75,0,0,1,.294.977,10.862,10.862,0,0,1,.05,1.087v5.563h-1.77v-1.963l.294.319a4.057,4.057,0,0,1-1.431,1.439A4.151,4.151,0,0,1,209.744,422.01Zm.4-1.611a2.6,2.6,0,0,0,1.174-.244,2.339,2.339,0,0,0,.777-.6,2.081,2.081,0,0,0,.39-.663,2.587,2.587,0,0,0,.18-.886c.014-.332.021-.6.021-.809l.621.185q-.915.143-1.57.252t-1.124.206a7.572,7.572,0,0,0-.831.214,2.547,2.547,0,0,0-.6.294,1.233,1.233,0,0,0-.373.386.977.977,0,0,0-.13.512,1.049,1.049,0,0,0,.168.591,1.141,1.141,0,0,0,.49.407A1.889,1.889,0,0,0,210.148,420.4Z" transform="translate(-198.257 -409.44)" fill="#368b27"></path><path id="Path_134" data-name="Path 134" d="M219.293,421.15V409.067h2.039v5.723h-.252v6.36Zm4.372.252a3.778,3.778,0,0,1-2.224-.63,3.844,3.844,0,0,1-1.351-1.716,6.811,6.811,0,0,1,0-4.887,3.88,3.88,0,0,1,1.33-1.708,3.64,3.64,0,0,1,2.169-.625,3.941,3.941,0,0,1,2.227.625,4.168,4.168,0,0,1,1.465,1.7,5.576,5.576,0,0,1,.52,2.454,5.643,5.643,0,0,1-.512,2.441,4.156,4.156,0,0,1-1.443,1.711A3.8,3.8,0,0,1,223.665,421.4Zm-.311-1.812a2.067,2.067,0,0,0,1.3-.394,2.315,2.315,0,0,0,.759-1.07,4.353,4.353,0,0,0,.248-1.506,4.257,4.257,0,0,0-.252-1.5,2.332,2.332,0,0,0-.78-1.074,2.175,2.175,0,0,0-1.343-.4,2.014,2.014,0,0,0-1.259.372,2.168,2.168,0,0,0-.718,1.041,5.358,5.358,0,0,0,0,3.109,1.969,1.969,0,0,0,2.044,1.418Z" transform="translate(-200.522 -408.832)" fill="#368b27"></path><path id="Path_135" data-name="Path 135" d="M236.016,422.01a4.508,4.508,0,0,1-2.375-.613,4.168,4.168,0,0,1-1.573-1.691,5.312,5.312,0,0,1-.558-2.479,5.255,5.255,0,0,1,.571-2.5,4.2,4.2,0,0,1,1.586-1.678,4.905,4.905,0,0,1,4.732.008,4.2,4.2,0,0,1,1.578,1.691,5.752,5.752,0,0,1,0,4.967,4.207,4.207,0,0,1-1.582,1.687A4.53,4.53,0,0,1,236.016,422.01Zm0-1.9a2.077,2.077,0,0,0,1.8-.806,3.445,3.445,0,0,0,.587-2.08,3.386,3.386,0,0,0-.6-2.1,2.1,2.1,0,0,0-1.787-.786,2.288,2.288,0,0,0-1.338.366,2.146,2.146,0,0,0-.777,1.015,4.169,4.169,0,0,0-.252,1.506,3.373,3.373,0,0,0,.6,2.1A2.086,2.086,0,0,0,236.016,420.114Z" transform="translate(-202.721 -409.44)" fill="#368b27"></path><path id="Path_136" data-name="Path 136" d="M244.976,421.8v-9.062h1.788v2.207l-.219-.285a3.248,3.248,0,0,1,.449-.827,2.44,2.44,0,0,1,.675-.616,2.855,2.855,0,0,1,.743-.357,3.591,3.591,0,0,1,1.665-.122v1.889a2.566,2.566,0,0,0-.927-.076,2.132,2.132,0,0,0-.944.294,2.038,2.038,0,0,0-.684.579,2.391,2.391,0,0,0-.39.8,3.55,3.55,0,0,0-.126.968V421.8Z" transform="translate(-205.144 -409.485)" fill="#368b27"></path><path id="Path_137" data-name="Path 137" d="M255.309,422.01a3.407,3.407,0,0,1-1.662-.374,2.55,2.55,0,0,1-1.028-.994,2.748,2.748,0,0,1-.349-1.368,3.03,3.03,0,0,1,.219-1.178,2.364,2.364,0,0,1,.671-.907,3.6,3.6,0,0,1,1.175-.625,11.117,11.117,0,0,1,1.279-.318q.734-.143,1.594-.265t1.8-.265l-.722.412a1.908,1.908,0,0,0-.42-1.384,1.943,1.943,0,0,0-1.442-.444,2.613,2.613,0,0,0-1.183.285,1.58,1.58,0,0,0-.8.982l-1.846-.58a3.411,3.411,0,0,1,1.279-1.845,4.193,4.193,0,0,1,2.547-.7,5.35,5.35,0,0,1,2.127.394,2.639,2.639,0,0,1,1.363,1.292,2.749,2.749,0,0,1,.294.977,10.85,10.85,0,0,1,.051,1.087v5.563h-1.77v-1.963l.294.319a4.05,4.05,0,0,1-1.431,1.439A4.149,4.149,0,0,1,255.309,422.01Zm.4-1.611a2.6,2.6,0,0,0,1.174-.244,2.34,2.34,0,0,0,.777-.6,2.1,2.1,0,0,0,.39-.663,2.626,2.626,0,0,0,.18-.886c.014-.332.021-.6.021-.809l.621.185q-.914.143-1.569.252t-1.124.206a7.526,7.526,0,0,0-.831.214,2.539,2.539,0,0,0-.6.294,1.242,1.242,0,0,0-.373.386.977.977,0,0,0-.13.512,1.056,1.056,0,0,0,.168.591,1.146,1.146,0,0,0,.49.407A1.889,1.889,0,0,0,255.712,420.4Z" transform="translate(-206.457 -409.44)" fill="#368b27"></path><path id="Path_138" data-name="Path 138" d="M263.65,413.784V412.2h6.318v1.586Zm6.318,7.476a8.4,8.4,0,0,1-1.758.147,4.063,4.063,0,0,1-1.539-.318,2.109,2.109,0,0,1-1.032-.945,2.7,2.7,0,0,1-.327-1.2q-.017-.613-.017-1.384v-7.88h2.014v7.762q0,.545.013.956a1.357,1.357,0,0,0,.171.672,1.173,1.173,0,0,0,.965.562,6.439,6.439,0,0,0,1.51-.067Z" transform="translate(-208.505 -408.943)" fill="#368b27"></path><path id="Path_139" data-name="Path 139" d="M277.478,422.01a4.507,4.507,0,0,1-2.375-.613,4.17,4.17,0,0,1-1.574-1.691,5.321,5.321,0,0,1-.558-2.479,5.255,5.255,0,0,1,.571-2.5,4.2,4.2,0,0,1,1.586-1.678,4.905,4.905,0,0,1,4.732.008,4.2,4.2,0,0,1,1.577,1.691,5.744,5.744,0,0,1,0,4.967,4.2,4.2,0,0,1-1.582,1.687A4.525,4.525,0,0,1,277.478,422.01Zm0-1.9a2.074,2.074,0,0,0,1.8-.806,3.44,3.44,0,0,0,.588-2.08,3.386,3.386,0,0,0-.6-2.1,2.1,2.1,0,0,0-1.787-.786,2.288,2.288,0,0,0-1.338.366,2.14,2.14,0,0,0-.777,1.015,4.152,4.152,0,0,0-.252,1.506,3.373,3.373,0,0,0,.6,2.1A2.085,2.085,0,0,0,277.478,420.114Z" transform="translate(-210.183 -409.44)" fill="#368b27"></path><path id="Path_140" data-name="Path 140" d="M286.438,421.8v-9.062h1.787v2.207l-.218-.285a3.249,3.249,0,0,1,.449-.827,2.441,2.441,0,0,1,.675-.616,2.855,2.855,0,0,1,.743-.357,3.591,3.591,0,0,1,1.665-.122v1.889a2.568,2.568,0,0,0-.927-.076,2.136,2.136,0,0,0-.944.294,2.042,2.042,0,0,0-.683.579,2.408,2.408,0,0,0-.391.8,3.583,3.583,0,0,0-.125.968V421.8Z" transform="translate(-212.606 -409.485)" fill="#368b27"></path><path id="Path_141" data-name="Path 141" d="M295.712,425.841l1.746-4.791.034,1.41-3.953-9.708h2.106l2.8,7.183h-.537l2.727-7.183h2.022l-5.051,13.09Z" transform="translate(-213.884 -409.495)" fill="#368b27"></path><path id="Path_142" data-name="Path 142" d="M313.371,421.15V410.964H309.46v-1.9H319.3v1.9h-3.91V421.15Z" transform="translate(-216.749 -408.832)" fill="#368b27"></path><path id="Path_143" data-name="Path 143" d="M325.677,422.01a4.772,4.772,0,0,1-2.417-.6,4.206,4.206,0,0,1-1.624-1.652,4.955,4.955,0,0,1-.583-2.433,5.52,5.52,0,0,1,.57-2.581,4.178,4.178,0,0,1,1.586-1.7,4.5,4.5,0,0,1,2.349-.6,4.22,4.22,0,0,1,2.4.659,3.914,3.914,0,0,1,1.465,1.859,6.361,6.361,0,0,1,.36,2.827h-2.005v-.738a3.642,3.642,0,0,0-.521-2.157,1.884,1.884,0,0,0-1.611-.68,2.2,2.2,0,0,0-1.846.768,3.574,3.574,0,0,0-.6,2.245,3.337,3.337,0,0,0,.6,2.131,2.122,2.122,0,0,0,1.761.755,2.414,2.414,0,0,0,1.288-.332,2.164,2.164,0,0,0,.835-.961l2,.6a4.053,4.053,0,0,1-1.607,1.906A4.432,4.432,0,0,1,325.677,422.01Zm-3.122-4.221v-1.527h6.235v1.527Z" transform="translate(-218.836 -409.44)" fill="#368b27"></path><path id="Path_144" data-name="Path 144" d="M337.581,422.01a4.557,4.557,0,0,1-2.727-.755,3.131,3.131,0,0,1-1.276-2.123l2.065-.319a1.74,1.74,0,0,0,.7,1.058,2.323,2.323,0,0,0,1.376.385,1.892,1.892,0,0,0,1.128-.289.926.926,0,0,0,.4-.793.791.791,0,0,0-.147-.5,1.452,1.452,0,0,0-.642-.366q-.494-.175-1.519-.444a9.078,9.078,0,0,1-1.812-.65,2.371,2.371,0,0,1-.965-.827,2.176,2.176,0,0,1-.294-1.158,2.492,2.492,0,0,1,.445-1.477,2.839,2.839,0,0,1,1.242-.968,4.757,4.757,0,0,1,1.88-.34,5.019,5.019,0,0,1,1.875.327,3.261,3.261,0,0,1,1.322.932,2.8,2.8,0,0,1,.621,1.419l-2.064.368a1.307,1.307,0,0,0-.525-.914,2.158,2.158,0,0,0-1.2-.377,2.012,2.012,0,0,0-1.15.214.793.793,0,0,0-.436.718.622.622,0,0,0,.176.444,1.88,1.88,0,0,0,.709.369q.533.185,1.59.453a7.53,7.53,0,0,1,1.733.633,2.364,2.364,0,0,1,.94.852,2.34,2.34,0,0,1,.289,1.2,2.583,2.583,0,0,1-.995,2.148A4.346,4.346,0,0,1,337.581,422.01Z" transform="translate(-221.09 -409.44)" fill="#368b27"></path><path id="Path_145" data-name="Path 145" d="M344.25,413.784V412.2h6.318v1.586Zm6.318,7.476a8.4,8.4,0,0,1-1.757.147,4.068,4.068,0,0,1-1.54-.318,2.113,2.113,0,0,1-1.032-.945,2.709,2.709,0,0,1-.327-1.2q-.016-.613-.016-1.384v-7.88h2.014v7.762q0,.545.012.956a1.348,1.348,0,0,0,.172.672,1.17,1.17,0,0,0,.965.562,6.434,6.434,0,0,0,1.51-.067Z" transform="translate(-223.01 -408.943)" fill="#368b27"></path><path id="Path_146" data-name="Path 146" d="M363.2,421.35a5.928,5.928,0,0,1-2.387-.462,4.454,4.454,0,0,1-1.746-1.322,4.274,4.274,0,0,1-.868-2.043l2.1-.319a2.774,2.774,0,0,0,1.1,1.661,3.258,3.258,0,0,0,1.925.588,3.627,3.627,0,0,0,1.217-.2,2.272,2.272,0,0,0,.927-.587,1.35,1.35,0,0,0,.356-.949,1.264,1.264,0,0,0-.084-.465,1.124,1.124,0,0,0-.248-.382,1.715,1.715,0,0,0-.42-.307,3.148,3.148,0,0,0-.591-.239l-3.121-.923a7.705,7.705,0,0,1-.868-.315,3.482,3.482,0,0,1-.882-.545,2.656,2.656,0,0,1-.68-.889,3.034,3.034,0,0,1-.264-1.338,3.187,3.187,0,0,1,.592-1.96,3.567,3.567,0,0,1,1.594-1.187,5.93,5.93,0,0,1,2.227-.385,5.713,5.713,0,0,1,2.216.423,4.253,4.253,0,0,1,1.628,1.2,4.621,4.621,0,0,1,.923,1.9l-2.173.377a2.415,2.415,0,0,0-.516-1.087,2.487,2.487,0,0,0-.932-.684,3.175,3.175,0,0,0-1.17-.252,3.13,3.13,0,0,0-1.12.18,2.01,2.01,0,0,0-.831.541,1.2,1.2,0,0,0-.315.823,1.008,1.008,0,0,0,.268.726,1.912,1.912,0,0,0,.668.444,6.617,6.617,0,0,0,.809.273l2.165.6q.445.119,1,.319a4.559,4.559,0,0,1,1.065.563,2.863,2.863,0,0,1,.844.948,3.019,3.019,0,0,1,.331,1.494,3.37,3.37,0,0,1-.39,1.649,3.489,3.489,0,0,1-1.053,1.178,4.807,4.807,0,0,1-1.515.705A6.67,6.67,0,0,1,363.2,421.35Z" transform="translate(-225.52 -408.781)" fill="#368b27"></path><path id="Path_147" data-name="Path 147" d="M372.706,410.666v-1.854h2.022v1.854Zm0,10.438v-9.062h2.022V421.1Z" transform="translate(-228.131 -408.786)" fill="#368b27"></path><path id="Path_148" data-name="Path 148" d="M382.456,422.01a4.772,4.772,0,0,1-2.417-.6,4.206,4.206,0,0,1-1.624-1.652,4.956,4.956,0,0,1-.583-2.433,5.52,5.52,0,0,1,.57-2.581,4.177,4.177,0,0,1,1.586-1.7,4.5,4.5,0,0,1,2.349-.6,4.22,4.22,0,0,1,2.4.659,3.907,3.907,0,0,1,1.464,1.859,6.348,6.348,0,0,1,.361,2.827h-2v-.738a3.643,3.643,0,0,0-.521-2.157,1.884,1.884,0,0,0-1.611-.68,2.2,2.2,0,0,0-1.846.768,3.574,3.574,0,0,0-.6,2.245,3.337,3.337,0,0,0,.6,2.131,2.122,2.122,0,0,0,1.761.755,2.416,2.416,0,0,0,1.288-.332,2.164,2.164,0,0,0,.835-.961l2,.6a4.058,4.058,0,0,1-1.607,1.906A4.432,4.432,0,0,1,382.456,422.01Zm-3.122-4.221v-1.527h6.235v1.527Z" transform="translate(-229.054 -409.44)" fill="#368b27"></path><path id="Path_149" data-name="Path 149" d="M392.827,421.813l-3.288-9.062h2.021l2.283,6.57,2.274-6.57h2.03l-3.289,9.062Z" transform="translate(-231.161 -409.495)" fill="#368b27"></path><path id="Path_150" data-name="Path 150" d="M405.683,422.01a4.769,4.769,0,0,1-2.416-.6,4.206,4.206,0,0,1-1.624-1.652,4.947,4.947,0,0,1-.584-2.433,5.51,5.51,0,0,1,.571-2.581,4.177,4.177,0,0,1,1.586-1.7,4.5,4.5,0,0,1,2.349-.6,4.22,4.22,0,0,1,2.4.659,3.912,3.912,0,0,1,1.464,1.859,6.348,6.348,0,0,1,.361,2.827h-2.006v-.738a3.643,3.643,0,0,0-.52-2.157,1.884,1.884,0,0,0-1.611-.68,2.2,2.2,0,0,0-1.846.768,3.569,3.569,0,0,0-.6,2.245,3.332,3.332,0,0,0,.6,2.131,2.122,2.122,0,0,0,1.761.755,2.416,2.416,0,0,0,1.288-.332,2.164,2.164,0,0,0,.835-.961l2,.6a4.056,4.056,0,0,1-1.606,1.906A4.433,4.433,0,0,1,405.683,422.01Zm-3.121-4.221v-1.527H408.8v1.527Z" transform="translate(-233.234 -409.44)" fill="#368b27"></path><path id="Path_151" data-name="Path 151" d="M417.588,422.01a4.56,4.56,0,0,1-2.727-.755,3.13,3.13,0,0,1-1.275-2.123l2.064-.319a1.744,1.744,0,0,0,.7,1.058,2.325,2.325,0,0,0,1.377.385,1.892,1.892,0,0,0,1.128-.289.926.926,0,0,0,.4-.793.791.791,0,0,0-.147-.5,1.462,1.462,0,0,0-.642-.366q-.5-.175-1.519-.444a9.04,9.04,0,0,1-1.812-.65,2.371,2.371,0,0,1-.965-.827,2.169,2.169,0,0,1-.294-1.158,2.491,2.491,0,0,1,.444-1.477,2.838,2.838,0,0,1,1.242-.968,4.765,4.765,0,0,1,1.88-.34,5.017,5.017,0,0,1,1.875.327,3.251,3.251,0,0,1,1.322.932,2.784,2.784,0,0,1,.621,1.419l-2.064.368a1.306,1.306,0,0,0-.524-.914,2.16,2.16,0,0,0-1.2-.377,2.009,2.009,0,0,0-1.15.214.793.793,0,0,0-.436.718.618.618,0,0,0,.176.444,1.882,1.882,0,0,0,.708.369q.533.185,1.59.453a7.53,7.53,0,0,1,1.733.633,2.358,2.358,0,0,1,.94.852,2.331,2.331,0,0,1,.289,1.2,2.582,2.582,0,0,1-.994,2.148A4.349,4.349,0,0,1,417.588,422.01Z" transform="translate(-235.488 -409.44)" fill="#368b27"></path></g></g></g><g id="Group_902" data-name="Group 902" transform="translate(0 2.881)"><path id="Path_152" data-name="Path 152" d="M195.351,381.31q-3.1-3.347-3.1-9.339a14.815,14.815,0,0,1,1.445-6.767,10.128,10.128,0,0,1,4.211-4.387,13.36,13.36,0,0,1,6.573-1.533,17.959,17.959,0,0,1,5.233.722,9.488,9.488,0,0,1,3.718,1.957l-.423,4.863h-1.163a20.646,20.646,0,0,1-.811-4.44,6.329,6.329,0,0,0-2.378-1.057,12.141,12.141,0,0,0-2.978-.388,7.693,7.693,0,0,0-4.6,1.374,8.642,8.642,0,0,0-2.942,3.859,15.148,15.148,0,0,0-1.023,5.8q0,5.145,2.009,8.088A6.707,6.707,0,0,0,205.043,383a10.742,10.742,0,0,0,1.709-.159,6.144,6.144,0,0,0,1.638-.476v-8.775q-2.08-.492-2.784-.7v-.564h9.867v.423a5.516,5.516,0,0,1-1.145.546,7.883,7.883,0,0,1-1.322.37v8.952a10.135,10.135,0,0,1-3.718,1.5,22.321,22.321,0,0,1-4.951.547Q198.452,384.659,195.351,381.31Z" transform="translate(-192.25 -359.285)" fill="#003d42"></path><path id="Path_153" data-name="Path 153" d="M252.3,377.348H238.945a9.122,9.122,0,0,0,1.6,5.286,5.2,5.2,0,0,0,4.493,2.115,10.7,10.7,0,0,0,3.084-.494A9.7,9.7,0,0,0,251,382.88l.458,1.128a9.089,9.089,0,0,1-3.119,1.586,14.142,14.142,0,0,1-4.317.635,11.263,11.263,0,0,1-5.2-1.128,8,8,0,0,1-3.383-3.19,9.435,9.435,0,0,1-1.18-4.775,8.836,8.836,0,0,1,2.519-6.749,9.839,9.839,0,0,1,7.031-2.378,9.1,9.1,0,0,1,4.758,1.145,7.146,7.146,0,0,1,2.819,3.031,9.52,9.52,0,0,1,.916,4.212Zm-4.053-1.551a9.946,9.946,0,0,0-.423-2.837,5.464,5.464,0,0,0-1.41-2.4,3.514,3.514,0,0,0-2.572-.969,3.868,3.868,0,0,0-3.383,1.745,9.226,9.226,0,0,0-1.445,4.458Z" transform="translate(-199.81 -360.855)" fill="#003d42"></path><path id="Path_154" data-name="Path 154" d="M279.921,385.339v.529h-9.938v-.529a17.775,17.775,0,0,1,2.537-.74V373.217q0-3.63-3.277-3.63a5.9,5.9,0,0,0-2.485.618,7.389,7.389,0,0,0-2.449,1.921v12.51a17.966,17.966,0,0,1,2.784.7v.529h-10.22v-.529a12.659,12.659,0,0,1,2.784-.74V369.692a20.244,20.244,0,0,1-2.431-.669v-.353l7.083-.7V370.5a9.673,9.673,0,0,1,2.925-1.815,9.543,9.543,0,0,1,3.629-.687,7.364,7.364,0,0,1,4.564,1.321,4.359,4.359,0,0,1,1.744,3.683v11.63A12.158,12.158,0,0,1,279.921,385.339Z" transform="translate(-203.88 -360.847)" fill="#003d42"></path><path id="Path_155" data-name="Path 155" d="M285.134,381.083a4.375,4.375,0,0,1,1.974-4.017,9.741,9.741,0,0,1,5.215-1.233h4.723V373.26a3.338,3.338,0,0,0-1.11-2.784,4.841,4.841,0,0,0-3.083-.882,11.06,11.06,0,0,0-2.943.423,15.412,15.412,0,0,0-2.8,1.058l-.282-1.34a14.963,14.963,0,0,1,3.489-1.269,17.266,17.266,0,0,1,3.982-.458,9.39,9.39,0,0,1,5.41,1.374,4.253,4.253,0,0,1,1.991,3.666v11.833c.868.291,1.13.38,1.832.6v.388l-6.484,0v-2.215a7.651,7.651,0,0,1-2.732,1.939,8.169,8.169,0,0,1-3.154.635Q285.134,386.229,285.134,381.083Zm10.114,2.75a5.067,5.067,0,0,0,1.8-1.8v-4.652h-3.629a3.67,3.67,0,0,0-2.767.969,3.722,3.722,0,0,0-.934,2.7,3.625,3.625,0,0,0,.863,2.661,3.166,3.166,0,0,0,2.344.864A4.431,4.431,0,0,0,295.248,383.832Z" transform="translate(-208.966 -360.855)" fill="#003d42"></path><path id="Path_156" data-name="Path 156" d="M407.838,377.348H394.481a9.128,9.128,0,0,0,1.6,5.286,5.2,5.2,0,0,0,4.494,2.115,10.694,10.694,0,0,0,3.083-.494,9.7,9.7,0,0,0,2.872-1.374l.458,1.128a9.084,9.084,0,0,1-3.119,1.586,14.147,14.147,0,0,1-4.317.635,11.268,11.268,0,0,1-5.2-1.128,8,8,0,0,1-3.383-3.19,9.435,9.435,0,0,1-1.181-4.775,8.833,8.833,0,0,1,2.52-6.749,9.838,9.838,0,0,1,7.03-2.378,9.1,9.1,0,0,1,4.758,1.145,7.141,7.141,0,0,1,2.819,3.031,9.509,9.509,0,0,1,.917,4.212Zm-4.053-1.551a9.972,9.972,0,0,0-.422-2.837,5.48,5.48,0,0,0-1.41-2.4,3.516,3.516,0,0,0-2.573-.969A3.868,3.868,0,0,0,396,371.339a9.217,9.217,0,0,0-1.445,4.458Z" transform="translate(-227.801 -360.855)" fill="#003d42"></path><path id="Path_157" data-name="Path 157" d="M412.17,385.3a12.182,12.182,0,0,1,2.784-.7V369.692a19.451,19.451,0,0,1-2.4-.669v-.317l6.52-.74.388,3.242h.14a5.284,5.284,0,0,1,1.9-2.343,4.735,4.735,0,0,1,2.713-.864,8.1,8.1,0,0,1,1.868.194,5.221,5.221,0,0,1,1.586.687l-.882,2.221a3.645,3.645,0,0,0-2.079-.67,4.718,4.718,0,0,0-2.89,1,7.988,7.988,0,0,0-2.221,2.625v10.573a16.912,16.912,0,0,1,2.75.7v.529H412.17Z" transform="translate(-231.828 -360.847)" fill="#003d42"></path></g><g id="Group_906" data-name="Group 906" transform="translate(23.771)"><g id="Group_905" data-name="Group 905"><g id="Group_904" data-name="Group 904"><g id="Group_903" data-name="Group 903"><path id="Path_158" data-name="Path 158" d="M221.238,383.146q.739-.246,2.782-.74V357.5a20.341,20.341,0,0,1-2.431-.669v-.353l7.079-.7v26.669a14.566,14.566,0,0,1,2.782.7v.528H221.238Z" transform="translate(-221.238 -355.772)" fill="#003d42"></path><path id="Path_159" data-name="Path 159" d="M341.4,385.336v.528h-9.462v-.528q.176-.071.968-.353a7.838,7.838,0,0,1,1.567-.387V373.22q0-3.626-3.275-3.627a4.163,4.163,0,0,0-2.13.635,7.476,7.476,0,0,0-2.025,1.83,9.5,9.5,0,0,1,.071.951V384.6a10.043,10.043,0,0,1,2.5.74v.528h-9.4v-.528q.176-.071.969-.353a8.056,8.056,0,0,1,1.5-.387V373.22a3.876,3.876,0,0,0-.827-2.8,3.121,3.121,0,0,0-2.308-.828,4.447,4.447,0,0,0-2.166.617,7.414,7.414,0,0,0-2.1,1.814v12.608a17.81,17.81,0,0,1,2.782.7v.528h-9.837v-.528a9.918,9.918,0,0,1,2.406-.74V369.7a20.153,20.153,0,0,1-2.43-.669v-.352l7.079-.7v2.43a8.626,8.626,0,0,1,2.5-1.725,7.445,7.445,0,0,1,3.169-.669,7.838,7.838,0,0,1,3.575.757,4.474,4.474,0,0,1,2.13,2.131,8.373,8.373,0,0,1,2.641-2.1,7.625,7.625,0,0,1,3.522-.792,7.351,7.351,0,0,1,4.56,1.32,4.356,4.356,0,0,1,1.743,3.68V384.6A8.509,8.509,0,0,1,341.4,385.336Z" transform="translate(-236.889 -357.968)" fill="#003d42"></path><path id="Path_160" data-name="Path 160" d="M383.355,385.336v.528h-9.967v-.528q.176-.071.968-.353a7.838,7.838,0,0,1,1.567-.387V373.22q0-3.626-3.275-3.627a4.163,4.163,0,0,0-2.13.635,7.473,7.473,0,0,0-2.025,1.83q.069.633.07.951V384.6a10.043,10.043,0,0,1,2.5.74v.528h-9.4v-.528q.176-.071.968-.353a8.056,8.056,0,0,1,1.5-.387V373.22a3.876,3.876,0,0,0-.827-2.8,3.119,3.119,0,0,0-2.307-.828,4.45,4.45,0,0,0-2.167.617,7.414,7.414,0,0,0-2.1,1.814V384.6a17.837,17.837,0,0,1,2.782.74v.528h-9.965v-.528a10.785,10.785,0,0,1,2.534-.74V369.7a20.194,20.194,0,0,1-2.43-.669v-.352l7.079-.7v2.43a8.626,8.626,0,0,1,2.5-1.725,7.445,7.445,0,0,1,3.169-.669,7.838,7.838,0,0,1,3.575.757,4.471,4.471,0,0,1,2.13,2.131,8.373,8.373,0,0,1,2.641-2.1,7.625,7.625,0,0,1,3.522-.792,7.351,7.351,0,0,1,4.56,1.32,4.354,4.354,0,0,1,1.743,3.68V384.6A16.554,16.554,0,0,1,383.355,385.336Z" transform="translate(-244.329 -357.968)" fill="#003d42"></path></g></g></g></g></g></g></svg> 